<svg xmlns="http://www.w3.org/2000/svg" style="display:none">
  <symbol id="icon-robot" viewBox="0 0 24 24" fill="none" stroke="currentColor" stroke-width="2" stroke-linecap="round" stroke-linejoin="round">
    <rect x="3" y="9" width="18" height="10" rx="2" ry="2"></rect>
    <line x1="8" y1="9" x2="8" y2="5"></line>
    <line x1="16" y1="9" x2="16" y2="5"></line>
    <circle cx="8" cy="13" r="1"></circle>
    <circle cx="16" cy="13" r="1"></circle>
    <line x1="12" y1="19" x2="12" y2="21"></line>
  </symbol>
  <symbol id="icon-users" viewBox="0 0 24 24" fill="none" stroke="currentColor" stroke-width="2" stroke-linecap="round" stroke-linejoin="round">
    <path d="M17 21v-2a4 4 0 0 0-4-4H5a4 4 0 0 0-4 4v2"></path>
    <circle cx="9" cy="7" r="4"></circle>
    <path d="M23 21v-2a4 4 0 0 0-3-3.87"></path>
    <path d="M16 3.13a4 4 0 0 1 0 7.75"></path>
  </symbol>
  <symbol id="icon-youtube" viewBox="0 0 24 24" fill="none" stroke="currentColor" stroke-width="2" stroke-linecap="round" stroke-linejoin="round">
    <path d="M22.54 6.42a2.78 2.78 0 0 0-1.94-2C18.88 4 12 4 12 4s-6.88 0-8.6.46a2.78 2.78 0 0 0-1.94 2A29 29 0 0 0 1 11.75a29 29 0 0 0 .46 5.33A2.78 2.78 0 0 0 3.4 19c1.72.46 8.6.46 8.6.46s6.88 0 8.6-.46a2.78 2.78 0 0 0 1.94-2A29 29 0 0 0 23 11.75a29 29 0 0 0-.46-5.33z"></path>
    <polygon points="9.75 15.02 15.5 11.75 9.75 8.48"></polygon>
  </symbol>
  <symbol id="icon-envelope" viewBox="0 0 24 24" fill="none" stroke="currentColor" stroke-width="2" stroke-linecap="round" stroke-linejoin="round">
    <path d="M4 4h16c1.1 0 2 .9 2 2v12c0 1.1-.9 2-2 2H4c-1.1 0-2-.9-2-2V6c0-1.1.9-2 2-2z"></path>
    <polyline points="22,6 12,13 2,6"></polyline>
  </symbol>
  <symbol id="icon-phone" viewBox="0 0 24 24" fill="none" stroke="currentColor" stroke-width="2" stroke-linecap="round" stroke-linejoin="round">
    <path d="M22 16.92v3a2 2 0 0 1-2.18 2 19.79 19.79 0 0 1-8.63-3.07 19.5 19.5 0 0 1-6-6 19.79 19.79 0 0 1-3.07-8.67A2 2 0 0 1 4.11 2h3a2 2 0 0 1 2 1.72 12.84 12.84 0 0 0 .7 2.81 2 2 0 0 1-.45 2.11L8.09 9.91a16 16 0 0 0 6 6l1.27-1.27a2 2 0 0 1 2.11-.45 12.84 12.84 0 0 0 2.81.7A2 2 0 0 1 22 16.92z"></path>
  </symbol>
  <symbol id="icon-x" viewBox="0 0 24 24" fill="none" stroke="currentColor" stroke-width="2" stroke-linecap="round">
    <path d="M5 5l14 14"></path>
    <path d="M19 5L5 19"></path>
  </symbol>
  <symbol id="icon-substack" viewBox="0 0 24 24" fill="none" stroke="currentColor" stroke-width="2" stroke-linecap="round" stroke-linejoin="round">
    <path d="M4 4h16"></path>
    <path d="M4 8h16"></path>
    <path d="M4 14h16"></path>
    <path d="M4 18h16"></path>
  </symbol>
  <symbol id="icon-linkedin" viewBox="0 0 24 24" fill="none" stroke="currentColor" stroke-width="2" stroke-linecap="round" stroke-linejoin="round">
    <rect x="4" y="4" width="16" height="16" rx="2"></rect>
    <circle cx="8" cy="8" r="1"></circle>
    <path d="M8 11v6"></path>
    <path d="M12 11v6"></path>
    <path d="M12 13c0-1 1-2 2-2s2 1 2 2v4"></path>
  </symbol>
  <symbol id="icon-github" viewBox="0 0 24 24" fill="none" stroke="currentColor" stroke-width="2" stroke-linecap="round" stroke-linejoin="round">
    <circle cx="12" cy="12" r="7"></circle>
    <circle cx="9.5" cy="11" r="0.8"></circle>
    <circle cx="14.5" cy="11" r="0.8"></circle>
    <path d="M9 15c1 1 5 1 6 0"></path>
    <path d="M8 8l-2-2"></path>
    <path d="M16 8l2-2"></path>
  </symbol>
  <symbol id="icon-dot" viewBox="0 0 24 24">
    <circle cx="12" cy="12" r="4" fill="currentColor"></circle>
  </symbol>
</svg>
